<svg xmlns="http://www.w3.org/2000/svg" viewBox="0 0 41.576 41.582"><g transform="translate(0 0)"><path d="M7.589,24h7.425l1.653-13H5.936Z" transform="translate(9.572 17.583)"/><path d="M10.436,23.978h4.527a2.6,2.6,0,0,0,2.546-2.087L19.687,11h-7.6Z" transform="translate(15.549 17.583)"/><path d="M2,11,4.178,21.891a2.6,2.6,0,0,0,2.546,2.087h4.527L9.6,11Z" transform="translate(4.496 17.583)"/><circle cx="3.898" cy="3.898" r="3.898" transform="translate(16.89)"/><path d="M36.379,11.687A16.823,16.823,0,0,0,26.8,2.442a6.49,6.49,0,0,1-6.01,4.048,6.49,6.49,0,0,1-6.01-4.048A16.823,16.823,0,0,0,5.2,11.687a5.2,5.2,0,1,0,0,10.394H36.379a5.2,5.2,0,1,0,0-10.394Z" transform="translate(0 3.904)"/></g></svg>