<svg xmlns="http://www.w3.org/2000/svg" width="41.576" height="41.576" viewBox="0 0 41.576 41.576"><g transform="translate(0 0)"><path d="M16.272,16.272C21.424,11.12,23.041,4.66,19.948,1.567S10.4.091,5.243,5.245s-6.766,11.609-3.676,14.7A5.74,5.74,0,0,0,5.75,21.515C8.939,21.515,12.888,19.659,16.272,16.272ZM9.235,9.235c1.284-1.284,2.844-1.8,3.486-1.162s.122,2.2-1.162,3.486-2.844,1.8-3.486,1.162S7.951,10.519,9.235,9.235Z" transform="translate(0 0)" fill="#f2f2f2"/><path d="M27.272,22.685a6.518,6.518,0,0,0-1.663-6.273l-.333-.33A12.864,12.864,0,0,0,21.919,3.55L20.58,2.212c0,3.885-2.087,8.435-6.008,12.357-3.758,3.758-8.378,6-12.357,6H2.21l1.344,1.344a13.061,13.061,0,0,0,12.534,3.36l.33.33a6.482,6.482,0,0,0,6.242,1.671,6.343,6.343,0,0,0,4.613-4.592Z" transform="translate(3.26 3.26)" fill="#f2f2f2"/><path d="M22.863,15.535a3.2,3.2,0,0,0-4.079-.416L14.775,11.11a9.081,9.081,0,0,1-1.551,2.1,9.115,9.115,0,0,1-2.115,1.559l4.011,4.011a3.239,3.239,0,0,0,4.988,4.079,3.163,3.163,0,0,0,.935-1.819,3.163,3.163,0,0,0,1.819-.935A3.219,3.219,0,0,0,22.863,15.535Z" transform="translate(17.76 17.76)" fill="#f2f2f2"/></g></svg>