<svg xmlns="http://www.w3.org/2000/svg" width="44.273" height="41.576" viewBox="0 0 44.273 41.576"><g transform="translate(0 0)"><path d="M19.249,1,8.046,20.392H30.009a10.839,10.839,0,0,0,.072-1.164A20.739,20.739,0,0,0,19.249,1Zm1.136,15.237a2.77,2.77,0,1,1,2.77-2.77A2.771,2.771,0,0,1,20.385,16.237Z" transform="translate(14.191 -1)" fill="#f2f2f2"/><path d="M17.5,23.174l2.4-4.158L29.25,2.835A20.773,20.773,0,1,0,41.506,23.174H17.5Zm3.287-16.63A1.386,1.386,0,1,1,19.4,7.929,1.386,1.386,0,0,1,20.788,6.543ZM9.615,17.63a1.386,1.386,0,1,1-1.386,1.386A1.386,1.386,0,0,1,9.615,17.63Zm1.472,13.859a2.772,2.772,0,1,1,2.772-2.772A2.773,2.773,0,0,1,11.087,31.489Zm2.772-16.63a2.772,2.772,0,1,1,2.772-2.772A2.773,2.773,0,0,1,13.859,14.859Zm5.543,19.4a1.386,1.386,0,1,1,1.386-1.386A1.386,1.386,0,0,1,19.4,34.261Zm15.244-8.315a1.386,1.386,0,1,1-1.386,1.386A1.386,1.386,0,0,1,34.646,25.945Zm-6.929,2.772a2.772,2.772,0,1,1-2.772,2.772A2.773,2.773,0,0,1,27.717,28.717Z" transform="translate(0 -1)" fill="#f2f2f2"/></g></svg>