<svg xmlns="http://www.w3.org/2000/svg" viewBox="0 0 45.647 41.576"><path d="M.04,8A21.652,21.652,0,0,0,14.262,26.5v3A1.434,1.434,0,0,0,15.7,30.938H30.032A1.434,1.434,0,0,0,31.466,29.5v-3A21.657,21.657,0,0,0,45.687,8Z" transform="translate(-0.04 10.637)"/><path d="M4.522,18.207a7.205,7.205,0,0,1,.5-7l1.921,1.921,5.076,5.076H22.485l-2.294-1.721a1.434,1.434,0,0,1,1.721-2.294l3.441,2.581V13.9a1.434,1.434,0,0,1,2.868,0v2.868l3.441-2.581a1.433,1.433,0,1,1,1.718,2.294l-2.291,1.721h9.532a8.571,8.571,0,0,0-7.4-11.442,8.6,8.6,0,0,0-12.876,0,7.936,7.936,0,0,0-2.165.516V2.434A1.42,1.42,0,0,0,16.75,1,10.055,10.055,0,0,0,6.913,9.03l-.975-.975a1.491,1.491,0,0,0-2.036,0A10.055,10.055,0,0,0,1.493,18.207Zm10.794-14.2v13.45L9.609,11.754a5.759,5.759,0,0,1-.029-.717A7.17,7.17,0,0,1,15.316,4.011Z" transform="translate(0.382 -1)"/></svg>