<svg xmlns="http://www.w3.org/2000/svg" viewBox="0 0 42.706 41.576"><g transform="translate(0 0)"><path d="M.04,8A20.257,20.257,0,0,0,13.346,25.311v2.809a1.342,1.342,0,0,0,1.341,1.341H28.1a1.342,1.342,0,0,0,1.341-1.341V25.311A20.261,20.261,0,0,0,42.746,8Z" transform="translate(-0.04 12.115)" /><path d="M10.336,18.777a1.3,1.3,0,0,1,.3-.306A18.478,18.478,0,0,0,16.228,11.5a1.341,1.341,0,1,1,2.431,1.135,21.716,21.716,0,0,1-4.3,6.142H22a14.829,14.829,0,0,0,3.04-3.4.673.673,0,0,0,.07-.121c2.809-5.431.69-13.894.6-14.251a1.34,1.34,0,0,0-.961-.958,1.357,1.357,0,0,0-1.312.37c-.024.021-2.219,2.243-9.547,5.053a8.718,8.718,0,0,0-5.3,5.286c-.6,1.739-.869,4.47.84,8.023Z" transform="translate(13.624 -0.003)"/><path d="M3.1,13.369A11.12,11.12,0,0,0,4.425,15H9.783A11.551,11.551,0,0,1,7.44,11.442a1.34,1.34,0,0,1,2.517-.922c.643,1.761,2.841,3.8,3.634,4.433.016.013.024.035.04.048h1.107a7.25,7.25,0,0,0,.322-5.148,6.347,6.347,0,0,0-3.854-3.859C6.35,4.133,4.876,2.67,4.876,2.67a1.34,1.34,0,0,0-2.283.576c-.064.249-1.544,6.161.44,10C3.053,13.288,3.077,13.328,3.1,13.369Z" transform="translate(4.678 3.773)"/></g></svg>